<svg xmlns="http://www.w3.org/2000/svg" width="40" height="40" fill="none" viewBox="0 0 40 40">
  <path stroke="#151515" stroke-linecap="round" stroke-linejoin="bevel" stroke-width="5.5" d="M33.233 18.833v9.5a3.333 3.333 0 01-3.333 3.334H12.866a3.333 3.333 0 01-3.333-3.334V6.667a3.333 3.333 0 013.334-3.334H22.7"/>
  <path stroke="#151515" stroke-linecap="round" stroke-linejoin="bevel" stroke-width="5.5" d="M27.883 32.517V33.6a3.333 3.333 0 01-3.333 3.333H7.533A3.333 3.333 0 014.2 33.6V10.383A3.333 3.333 0 017.533 7.05h1.483"/>
  <path stroke="#151515" stroke-linecap="round" stroke-linejoin="round" stroke-width="5.5" d="M32.166 3.75a1.668 1.668 0 00-2.366 0l-10 10-.167 5a.352.352 0 00.383.366l5-.166 10-10A1.667 1.667 0 0035 6.667L32.166 3.75z"/>
</svg>
