<svg xmlns="http://www.w3.org/2000/svg" width="40" height="40" fill="none" viewBox="0 0 40 40">
  <path stroke="#151515" stroke-linecap="round" stroke-linejoin="bevel" stroke-width="5.5" d="M36.516 15.033H3.833M10.1 7.983v-3.05M30.317 7.983v-3.05M33.333 8.334H6.667a3.333 3.333 0 00-3.334 3.333v20A3.333 3.333 0 006.667 35h26.666a3.333 3.333 0 003.334-3.333v-20a3.333 3.333 0 00-3.334-3.333z"/>
  <path stroke="#151515" stroke-linecap="round" stroke-linejoin="bevel" stroke-width="5.5" d="M12.267 20.017H8.933a.833.833 0 00-.833.833v3.333c0 .46.373.834.833.834h3.334c.46 0 .833-.373.833-.834V20.85a.833.833 0 00-.833-.833z"/>
  <path stroke="#151515" stroke-linecap="round" stroke-linejoin="round" stroke-width="5.5" d="M21.85 20.017h-3.333a.833.833 0 00-.833.833v3.333c0 .46.373.834.833.834h3.333c.46 0 .834-.373.834-.834V20.85a.833.833 0 00-.834-.833z"/>
</svg>
