<svg xmlns="http://www.w3.org/2000/svg" width="40" height="40" fill="none" viewBox="0 0 40 40">
  <path stroke="#151515" stroke-linecap="round" stroke-linejoin="round" stroke-width="5.5" d="M18.517 4.333L2.683 36a1.667 1.667 0 001.484 2.417h31.666A1.667 1.667 0 0037.316 36L21.483 4.333a1.667 1.667 0 00-2.966 0z"/>
  <path stroke="#151515" stroke-linecap="round" stroke-linejoin="bevel" stroke-width="5.5" d="M21.667 13.917a1.667 1.667 0 10-3.334 0v11.666a1.667 1.667 0 103.334 0V13.917zM20.017 30.55H20a2.217 2.217 0 00-2.217 2.217v.016c0 1.225.993 2.217 2.217 2.217h.017a2.217 2.217 0 002.216-2.217v-.016a2.217 2.217 0 00-2.216-2.217z"/>
</svg>
