<svg xmlns="http://www.w3.org/2000/svg" width="40" height="40" fill="none" viewBox="0 0 40 40">
  <path stroke="#151515" stroke-linecap="round" stroke-linejoin="bevel" stroke-width="5.5" d="M17.383 5.65l.15-.367a3.333 3.333 0 016.217.267l.117.383A3.334 3.334 0 0028.333 8l.35-.15a3.333 3.333 0 014.217 4.583l-.183.35a3.334 3.334 0 001.666 4.6l.367.15a3.334 3.334 0 01-.267 6.217l-.383.117a3.335 3.335 0 00-2.1 4.466l.15.35a3.334 3.334 0 01-4.583 4.217l-.35-.183a3.333 3.333 0 00-4.6 1.666l-.15.367a3.334 3.334 0 01-6.217-.267l-.117-.383a3.332 3.332 0 00-4.466-2.1l-.35.15A3.334 3.334 0 017.1 27.567l.183-.35a3.333 3.333 0 00-1.666-4.6l-.367-.15a3.333 3.333 0 01.267-6.217l.383-.117A3.333 3.333 0 008 11.667l-.15-.35a3.333 3.333 0 014.583-4.184l.35.184a3.334 3.334 0 004.6-1.667v0z" clip-rule="evenodd"/>
  <path stroke="#151515" stroke-linecap="round" stroke-linejoin="bevel" stroke-width="5.5" d="M20 26.517a6.517 6.517 0 100-13.034 6.517 6.517 0 000 13.034z"/>
</svg>
