<svg xmlns="http://www.w3.org/2000/svg" width="40" height="40" fill="none" viewBox="0 0 40 40">
  <path stroke="#151515" stroke-linecap="round" stroke-linejoin="round" stroke-width="5.5" d="M26.116 37.367l3.984-4.034a3.333 3.333 0 000-4.716L27.833 26.4a3.333 3.333 0 00-4.716 0l-1.5 1.5a27.484 27.484 0 01-9.417-9.4v0l1.5-1.5a3.333 3.333 0 000-4.717L11.45 10a3.333 3.333 0 00-4.783 0L2.75 14a1.667 1.667 0 00-.217 2.1v0a77.1 77.1 0 0021.483 21.483v0a1.666 1.666 0 002.1-.216v0zM13.433 5.167A15.833 15.833 0 0135 26.35"/>
  <path stroke="#151515" stroke-linecap="round" stroke-linejoin="round" stroke-width="5.5" d="M21.667 9.467V18.8h6.666"/>
</svg>
