<svg xmlns="http://www.w3.org/2000/svg" width="40" height="40" fill="none" viewBox="0 0 40 40">
  <path stroke="#151515" stroke-linecap="round" stroke-linejoin="round" stroke-width="5.5" d="M9.483 26.567h13.85A1.667 1.667 0 0025 25.1l1.267-10.35a1.665 1.665 0 00-1.667-1.867H9.483a6.85 6.85 0 00-6.85 6.85v0a6.85 6.85 0 006.85 6.834z"/>
  <path stroke="#151515" stroke-linecap="round" stroke-linejoin="round" stroke-width="5.5" d="M26.266 14.75h8.45a1.667 1.667 0 011.667 1.4l1.1 6.517a1.667 1.667 0 01-1.667 1.95h-9.55M9.866 21.9a2.283 2.283 0 100-4.567 2.283 2.283 0 000 4.567z"/>
</svg>
