<svg xmlns="http://www.w3.org/2000/svg" width="40" height="40" fill="none" viewBox="0 0 40 40">
  <path stroke="#151515" stroke-linecap="round" stroke-linejoin="round" stroke-width="5.5" d="M28.7 33.6H11.667a3.333 3.333 0 01-3.117-4.517l3.217-8.566a3.334 3.334 0 013.1-2.184h10.616a3.333 3.333 0 013.134 2.167l3.2 8.567A3.332 3.332 0 0128.7 33.6v0z"/>
  <path stroke="#151515" stroke-linecap="round" stroke-linejoin="bevel" stroke-width="5.5" d="M20.183 29.317a3.333 3.333 0 100-6.667 3.333 3.333 0 000 6.667z"/>
  <path stroke="#151515" stroke-linecap="round" stroke-linejoin="round" stroke-width="5.5" d="M3.467 9.55v3.967A3.333 3.333 0 006.8 16.85h1.533a3.333 3.333 0 003.334-3.333V11.4a42.733 42.733 0 0116.666 0v2.117a3.333 3.333 0 003.334 3.333h1.483a3.334 3.334 0 003.334-3.333V9.55a1.667 1.667 0 00-1.35-1.667 76.967 76.967 0 00-30.367 0v0a1.667 1.667 0 00-1.3 1.667z"/>
</svg>
