<svg xmlns="http://www.w3.org/2000/svg" width="40" height="40" fill="none" viewBox="0 0 40 40">
  <path stroke="#151515" stroke-linecap="round" stroke-linejoin="round" stroke-width="5.5" d="M31.667 6.033H8.333A3.333 3.333 0 005 9.367v10.066a3.333 3.333 0 003.333 3.334h23.334A3.333 3.333 0 0035 19.433V9.367a3.333 3.333 0 00-3.333-3.334zM8.333 22.767l6.484-16.734M17.35 22.767l7.183-16.734M26.117 22.767l6.366-16.133M15.2 23.2v8.467A2.517 2.517 0 0112.517 34v0a2.517 2.517 0 01-2.667-2.333V23.2M29.3 23.2v8.467a2.517 2.517 0 01-2.633 2.3v0A2.517 2.517 0 0124 31.634V23.2"/>
</svg>
