<svg xmlns="http://www.w3.org/2000/svg" width="40" height="40" fill="none" viewBox="0 0 40 40">
  <path stroke="#151515" stroke-linecap="round" stroke-linejoin="round" stroke-width="5.5" d="M29.834 8.05h-20A3.333 3.333 0 006.5 11.383v3.334a3.333 3.333 0 003.334 3.333h20a3.333 3.333 0 003.333-3.333v-3.334a3.333 3.333 0 00-3.333-3.333z"/>
  <path stroke="#151515" stroke-linecap="round" stroke-linejoin="round" stroke-width="5.5" d="M23.167 18.05v16.5a3.067 3.067 0 01-3.333 2.75v0a3.083 3.083 0 01-3.334-2.75v-16.5M17.483 7.3V6.083a2.283 2.283 0 012.35-2.216v0a2.283 2.283 0 012.35 2.216V7.3"/>
</svg>
