<svg xmlns="http://www.w3.org/2000/svg" width="40" height="40" fill="none" viewBox="0 0 40 40">
  <path stroke="#151515" stroke-linecap="round" stroke-linejoin="round" stroke-width="5.5" d="M26.667 13.333h6.666a3.333 3.333 0 013.334 3.334v10A3.333 3.333 0 0133.333 30H30l-3.333 5-5-5h-5a3.333 3.333 0 01-3.334-3.333v0"/>
  <path stroke="#151515" stroke-linecap="round" stroke-linejoin="round" stroke-width="5.5" d="M6.667 5h16.666a3.333 3.333 0 013.334 3.333v10a3.334 3.334 0 01-3.334 3.334h-5l-5 5-5-5H6.667a3.333 3.333 0 01-3.334-3.334v-10A3.333 3.333 0 016.667 5v0z"/>
</svg>
