<svg xmlns="http://www.w3.org/2000/svg" width="40" height="40" fill="none" viewBox="0 0 40 40">
  <path stroke="#151515" stroke-linecap="round" stroke-linejoin="round" stroke-width="5.5" d="M26.583 2.917H13.467a3.333 3.333 0 00-3.334 3.333v27.283a3.333 3.333 0 003.334 3.334h13.116a3.333 3.333 0 003.334-3.334V6.25a3.333 3.333 0 00-3.334-3.333z"/>
  <path stroke="#151515" stroke-linecap="round" stroke-linejoin="round" stroke-width="5.5" d="M20.033 28.55h-.016c-.59 0-1.067.478-1.067 1.067v.016c0 .59.477 1.067 1.067 1.067h.016c.59 0 1.067-.477 1.067-1.067v-.016c0-.59-.478-1.067-1.067-1.067z"/>
</svg>
