<svg xmlns="http://www.w3.org/2000/svg" width="40" height="40" fill="none" viewBox="0 0 40 40">
  <path stroke="#151515" stroke-linecap="round" stroke-linejoin="round" stroke-width="5.5" d="M26.567 3.017H13.45a3.333 3.333 0 00-3.333 3.333v27.283a3.333 3.333 0 003.333 3.334h13.117a3.333 3.333 0 003.333-3.334V6.35a3.333 3.333 0 00-3.333-3.333z"/>
  <path stroke="#151515" stroke-linecap="round" stroke-linejoin="round" stroke-width="5.5" d="M20.017 28.933H20c-.589 0-1.066.478-1.066 1.067v.017c0 .589.477 1.066 1.066 1.066h.017c.589 0 1.067-.477 1.067-1.066V30c0-.59-.478-1.067-1.067-1.067z"/>
</svg>
