<svg xmlns="http://www.w3.org/2000/svg" width="40" height="40" fill="none" viewBox="0 0 40 40">
  <path stroke="#151515" stroke-linecap="round" stroke-linejoin="round" stroke-width="5.5" d="M33.15 8.35H6.85a3.333 3.333 0 00-3.333 3.333v16.634A3.333 3.333 0 006.85 31.65h26.3a3.333 3.333 0 003.334-3.333V11.683A3.333 3.333 0 0033.15 8.35zM7.55 14.783h2.917M14.084 14.783h1.4M19.166 14.783h1.4M24.117 14.783h1.4M28.417 14.783h4.067M7.55 19.917h2.917M12.75 25.1H27.3M15.317 19.917h1.4M20.4 19.917h1.4M25.35 19.917h1.4M30.4 19.917h2.084M7.567 25h1.4M31.05 25h1.417"/>
</svg>
