<svg xmlns="http://www.w3.org/2000/svg" width="40" height="40" fill="none" viewBox="0 0 40 40">
  <path stroke="#151515" stroke-linecap="round" stroke-linejoin="round" stroke-width="5.5" d="M8.55 16.5H6.967a3.333 3.333 0 00-3.334 3.333v6.633A3.333 3.333 0 006.967 29.8H8.55a3.333 3.333 0 003.333-3.334v-6.633A3.333 3.333 0 008.55 16.5zM33.033 16.5H31.45a3.333 3.333 0 00-3.333 3.333v6.633A3.333 3.333 0 0031.45 29.8h1.583a3.333 3.333 0 003.334-3.334v-6.633a3.333 3.333 0 00-3.334-3.333z"/>
  <path stroke="#151515" stroke-linecap="round" stroke-linejoin="round" stroke-width="5.5" d="M10.684 17.267c4.366-9.334 13.9-9.434 18.333-.217l.1.216"/>
</svg>
