<svg xmlns="http://www.w3.org/2000/svg" width="40" height="40" fill="none" viewBox="0 0 40 40">
  <path stroke="#151515" stroke-linecap="round" stroke-linejoin="round" stroke-width="5.5" d="M13.333 5L30 21.667M15 6.667L4.016 17.65a3.333 3.333 0 000 4.7l8.7 8.7a3.333 3.333 0 004.634 0l11.383-10.717M3.333 20h25M10 20v8.333M15 20v11.667M20 20v8.333"/>
  <path stroke="#151515" stroke-linecap="round" stroke-linejoin="bevel" stroke-width="5.5" d="M32.1 37.35h.9a4.234 4.234 0 003.15-6.25l-3.134-5.833a.534.534 0 00-.916 0L28.95 31.1a4.233 4.233 0 003.15 6.25v0z"/>
</svg>
