<svg xmlns="http://www.w3.org/2000/svg" width="40" height="40" fill="none" viewBox="0 0 40 40">
  <path stroke="#151515" stroke-linecap="round" stroke-linejoin="round" stroke-width="5.5" d="M7.783 30H6.667a3.333 3.333 0 01-3.334-3.333v-15.85a3.333 3.333 0 013.334-3.334h16.3a3.333 3.333 0 013.333 3.334v11.516M26.9 13.65h3.983a1.966 1.966 0 011.55.75l3.767 5c.385.515.595 1.14.6 1.784v8.333a.333.333 0 01-.334.333h-5.083"/>
  <path stroke="#151515" stroke-linecap="round" stroke-linejoin="round" stroke-width="5.5" d="M27.516 33.434a3.733 3.733 0 100-7.467 3.733 3.733 0 000 7.467zM11.7 33.434a3.733 3.733 0 100-7.467 3.733 3.733 0 000 7.467zM23.2 29.917h-7.583"/>
</svg>
