<svg xmlns="http://www.w3.org/2000/svg" width="40" height="40" fill="none" viewBox="0 0 40 40">
  <path stroke="#151515" stroke-linecap="round" stroke-linejoin="round" stroke-width="5.5" d="M36.25 1.667h-2.5c-1.15 0-2.083.932-2.083 2.083v2.5c0 1.15.932 2.083 2.083 2.083h2.5c1.15 0 2.083-.932 2.083-2.083v-2.5c0-1.15-.932-2.083-2.083-2.083zM6.25 1.667h-2.5c-1.15 0-2.083.932-2.083 2.083v2.5c0 1.15.932 2.083 2.083 2.083h2.5c1.15 0 2.083-.932 2.083-2.083v-2.5c0-1.15-.932-2.083-2.083-2.083zM36.25 31.667h-2.5c-1.15 0-2.083.933-2.083 2.083v2.5c0 1.15.932 2.084 2.083 2.084h2.5c1.15 0 2.083-.933 2.083-2.084v-2.5c0-1.15-.932-2.083-2.083-2.083zM6.25 31.667h-2.5c-1.15 0-2.083.933-2.083 2.083v2.5c0 1.15.932 2.084 2.083 2.084h2.5c1.15 0 2.083-.933 2.083-2.084v-2.5c0-1.15-.932-2.083-2.083-2.083zM8.334 5h23.333M35 8.334v23.333M31.667 35H8.333M5 31.667V8.333M11.667 30L20 10M28.333 30L20 10M15 23.334h10"/>
</svg>
