<svg xmlns="http://www.w3.org/2000/svg" width="40" height="40" fill="none" viewBox="0 0 40 40">
  <path stroke="#151515" stroke-linecap="round" stroke-linejoin="round" stroke-width="5.5" d="M1.833 17.85L6.666 5H33.1a.367.367 0 01.316.217l4.75 12.666a.333.333 0 01-.316.45H30L25 15l-5 3.333L15 15l-5 3.333H2.15a.334.334 0 01-.317-.483zM6.616 18.3l.05 16.667M33.333 18.3l.05 16.667M36.667 34.967l-33.334.066M13.333 35V23.667a.333.333 0 01.334-.334h12.666a.334.334 0 01.334.334V35M20 34.967V23.3"/>
</svg>
