<svg xmlns="http://www.w3.org/2000/svg" width="40" height="40" fill="none" viewBox="0 0 40 40">
  <path stroke="#151515" stroke-linecap="round" stroke-linejoin="round" stroke-width="5.5" d="M2.8 4.617h5.833l5.267 22.85H35L37.2 11.2H11.6M17.683 31.033h-.016c-1.197 0-2.167.97-2.167 2.167v.017c0 1.196.97 2.166 2.167 2.166h.016c1.197 0 2.167-.97 2.167-2.166V33.2c0-1.197-.97-2.167-2.167-2.167z"/>
  <path stroke="#151515" stroke-linecap="round" stroke-linejoin="round" stroke-width="5.5" d="M17.683 31.033h-.016c-1.197 0-2.167.97-2.167 2.167v.017c0 1.196.97 2.166 2.167 2.166h.016c1.197 0 2.167-.97 2.167-2.166V33.2c0-1.197-.97-2.167-2.167-2.167zM29.117 31.033H29.1c-1.197 0-2.167.97-2.167 2.167v.017c0 1.196.97 2.166 2.167 2.166h.017c1.196 0 2.166-.97 2.166-2.166V33.2c0-1.197-.97-2.167-2.166-2.167z"/>
</svg>
