<svg xmlns="http://www.w3.org/2000/svg" width="40" height="40" fill="none" viewBox="0 0 40 40">
  <path stroke="#151515" stroke-linecap="round" stroke-linejoin="round" stroke-width="5.5" d="M20 36.667c9.205 0 16.667-7.462 16.667-16.667 0-9.205-7.462-16.666-16.667-16.666-9.205 0-16.667 7.461-16.667 16.666S10.795 36.667 20 36.667z"/>
  <path stroke="#151515" stroke-linecap="round" stroke-linejoin="round" stroke-width="5.5" d="M14.167 18.334a2.5 2.5 0 100-5 2.5 2.5 0 000 5zM25.833 18.334a2.5 2.5 0 100-5 2.5 2.5 0 000 5zM11.667 23.334h16.666M19.15 23.334v3.75A2.917 2.917 0 0022.084 30v0A2.917 2.917 0 0025 27.084v-3.75"/>
</svg>
