<svg xmlns="http://www.w3.org/2000/svg" width="40" height="40" fill="none" viewBox="0 0 40 40">
  <path stroke="#151515" stroke-linecap="round" stroke-linejoin="round" stroke-width="5.5" d="M33.333 10.267H6.667A3.333 3.333 0 003.333 13.6v12.783a3.333 3.333 0 003.334 3.334h26.666a3.333 3.333 0 003.334-3.334V13.6a3.333 3.333 0 00-3.334-3.333z"/>
  <path stroke="#151515" stroke-linecap="round" stroke-linejoin="round" stroke-width="5.5" d="M10 11.083a6.666 6.666 0 01-6.667 6.667v0M3.333 22.117A6.667 6.667 0 0110 28.783M30 28.783a6.667 6.667 0 016.667-6.666M36.667 17.75A6.667 6.667 0 0130 11.083v0M20 23.333a3.333 3.333 0 100-6.666 3.333 3.333 0 000 6.666z"/>
</svg>
