<svg xmlns="http://www.w3.org/2000/svg" width="40" height="40" fill="none" viewBox="0 0 40 40">
  <path stroke="#151515" stroke-linecap="round" stroke-linejoin="round" stroke-width="5.5" d="M34.667 11.717H5.333A.333.333 0 005 12.05v6c0 .184.15.334.333.334h29.334c.184 0 .333-.15.333-.334v-6a.333.333 0 00-.333-.333z"/>
  <path stroke="#151515" stroke-linecap="round" stroke-linejoin="round" stroke-width="5.5" d="M31.667 18.333v13.334A3.333 3.333 0 0128.333 35H11.667a3.333 3.333 0 01-3.334-3.333V18.333M7.183 11.667V11.2A4.883 4.883 0 0115.216 7l5.3 4.667"/>
  <path stroke="#151515" stroke-linecap="round" stroke-linejoin="round" stroke-width="5.5" d="M32.817 10.917v-.467a4.883 4.883 0 00-8.083-4.25l-5.25 4.717"/>
</svg>
