<svg xmlns="http://www.w3.org/2000/svg" width="40" height="40" fill="none" viewBox="0 0 40 40">
  <path stroke="#151515" stroke-linecap="round" stroke-linejoin="bevel" stroke-width="5.5" d="M29.867 13.683l.383.233.4.2a4.216 4.216 0 005.834-3.85l.183-6.666a.517.517 0 00-.784-.45L30.25 6.667a4.25 4.25 0 00-.383 7.016v0z"/>
  <path stroke="#151515" stroke-linecap="round" stroke-linejoin="round" stroke-width="5.5" d="M35.35 13.7a16.667 16.667 0 11-6.033-7.3M11.667 26.883l1.316-.533a6.667 6.667 0 015.5.2v0a11.666 11.666 0 008.334.767l1.483-.434M15 18.55v-5M25 18.55v-5"/>
</svg>
