<svg xmlns="http://www.w3.org/2000/svg" width="40" height="40" fill="none" viewBox="0 0 40 40">
  <path stroke="#151515" stroke-linecap="round" stroke-linejoin="round" stroke-width="5.5" d="M31.667 33.233H8.333A3.333 3.333 0 015 29.9v-5a37.017 37.017 0 0130 0v5a3.333 3.333 0 01-3.333 3.333z" clip-rule="evenodd"/>
  <path stroke="#151515" stroke-linecap="round" stroke-linejoin="round" stroke-width="5.5" d="M5 24.9v-4.033a5 5 0 015-5v0a5 5 0 015 5v.7M35 24.9v-4.033a5 5 0 10-10 0v.7M8.333 14.9V6.567a23.333 23.333 0 0123.067-.15l.267.15V14.9M10 33.233v3.334M30 33.233v3.334"/>
</svg>
