<svg xmlns="http://www.w3.org/2000/svg" width="40" height="40" fill="none" viewBox="0 0 40 40">
  <path stroke="#151515" stroke-linecap="round" stroke-linejoin="round" stroke-width="5.5" d="M33.333 6.667H6.667A3.333 3.333 0 003.333 10v16.666A3.333 3.333 0 006.667 30h26.666a3.333 3.333 0 003.334-3.334V10a3.333 3.333 0 00-3.334-3.333zM10 30v3.333M30 30v3.333M25 6.667V30"/>
  <path stroke="#151515" stroke-linecap="round" stroke-linejoin="round" stroke-width="5.5" d="M30.833 15a2.5 2.5 0 100-5 2.5 2.5 0 000 5zM30.833 23.333a2.5 2.5 0 100-5 2.5 2.5 0 000 5z"/>
</svg>
