<svg xmlns="http://www.w3.org/2000/svg" width="40" height="40" fill="none" viewBox="0 0 40 40">
  <path stroke="#151515" stroke-linecap="round" stroke-linejoin="round" stroke-width="5.5" d="M31.667 3.333H25a3.333 3.333 0 00-3.333 3.334v6.667A3.333 3.333 0 0025 16.666h6.667A3.333 3.333 0 0035 13.333V6.668a3.333 3.333 0 00-3.333-3.333zM31.667 23.334H25a3.333 3.333 0 00-3.333 3.333v6.666A3.333 3.333 0 0025 36.668h6.667A3.333 3.333 0 0035 33.333v-6.666a3.333 3.333 0 00-3.333-3.334zM15 26.667H5M15 33.334H8.333M15 13.334H8.333M15 6.667H5"/>
</svg>
