<svg xmlns="http://www.w3.org/2000/svg" width="40" height="40" fill="none" viewBox="0 0 40 40">
  <path stroke="#151515" stroke-linecap="round" stroke-linejoin="round" stroke-width="5.5" d="M13.333 6.667H6.667A3.333 3.333 0 003.333 10v6.666A3.333 3.333 0 006.667 20h6.666a3.333 3.333 0 003.334-3.334V10a3.333 3.333 0 00-3.334-3.333zM11.667 33.333H5M15 26.666H5M33.333 6.667h-6.666A3.333 3.333 0 0023.333 10v6.666A3.333 3.333 0 0026.667 20h6.666a3.333 3.333 0 003.334-3.334V10a3.333 3.333 0 00-3.334-3.333zM31.667 33.333H25M35 26.666H25"/>
</svg>
