<svg xmlns="http://www.w3.org/2000/svg" width="40" height="40" fill="none" viewBox="0 0 40 40">
  <path stroke="#151515" stroke-linecap="round" stroke-linejoin="round" stroke-width="5.5" d="M15 9.6l-1.667 27.066h13.334L25 9.6a3.333 3.333 0 00-.967-2.167l-3.8-3.867a.318.318 0 00-.466 0L15.9 7.433A3.334 3.334 0 0015 9.6v0z" clip-rule="evenodd"/>
  <path stroke="#151515" stroke-linecap="round" stroke-linejoin="round" stroke-width="5.5" d="M11.666 15h16.667M3.333 11.666l3.1 3.1a.317.317 0 010 .467l-3.1 3.1M36.533 18.333l-3.1-3.1a.319.319 0 01-.076-.36.318.318 0 01.076-.106l3.1-3.1"/>
</svg>
