<svg xmlns="http://www.w3.org/2000/svg" width="40" height="40" fill="none" viewBox="0 0 40 40">
  <path stroke="#151515" stroke-linecap="round" stroke-linejoin="round" stroke-width="5.5" d="M3.333 11.666h33.334v23a.333.333 0 01-.334.334H3.667a.333.333 0 01-.334-.334v-23z"/>
  <path stroke="#151515" stroke-linecap="round" stroke-linejoin="round" stroke-width="5.5" d="M13.234 35V25a3.333 3.333 0 013.333-3.334h6.767A3.334 3.334 0 0126.667 25v10M3.333 11.667V5.333A.333.333 0 013.667 5h6a.333.333 0 01.333.333v6.334M16.666 11.667V5.333A.333.333 0 0117 5h6a.333.333 0 01.333.333v6.334M30 11.667V5.333A.333.333 0 0130.333 5h6a.333.333 0 01.334.333v6.334"/>
</svg>
