<svg xmlns="http://www.w3.org/2000/svg" width="40" height="40" fill="none" viewBox="0 0 40 40">
  <path stroke="#151515" stroke-linecap="round" stroke-linejoin="round" stroke-width="5.5" d="M19.767 3.566L10.1 13.233a.334.334 0 00-.1.233v23.2h20v-23.2a.334.334 0 00-.1-.233l-9.667-9.667a.316.316 0 00-.466 0v0z" clip-rule="evenodd"/>
  <path stroke="#151515" stroke-linecap="round" stroke-linejoin="round" stroke-width="5.5" d="M10 23.333l-4.15 1.033A3.334 3.334 0 003.333 27.6v8.733a.333.333 0 00.334.333H10M30 23.333l4.15 1.033a3.334 3.334 0 012.517 3.234v8.733a.333.333 0 01-.334.333H30M20 13.333v8.333M16.666 16.666h6.667"/>
</svg>
