<svg xmlns="http://www.w3.org/2000/svg" width="40" height="40" fill="none" viewBox="0 0 40 40">
  <path stroke="#151515" stroke-linecap="round" stroke-linejoin="round" stroke-width="5.5" d="M20 10a3.333 3.333 0 100-6.667A3.333 3.333 0 0020 10zM31.667 16.667a3.333 3.333 0 100-6.667 3.333 3.333 0 000 6.667zM31.667 30a3.333 3.333 0 100-6.667 3.333 3.333 0 000 6.667zM8.333 30a3.333 3.333 0 100-6.667 3.333 3.333 0 000 6.667zM8.333 16.667a3.333 3.333 0 100-6.667 3.333 3.333 0 000 6.667z"/>
  <path stroke="#151515" stroke-linecap="round" stroke-linejoin="round" stroke-width="5.5" d="M20 30c5.523 0 10-4.477 10-10s-4.477-10-10-10-10 4.477-10 10 4.477 10 10 10z"/>
  <path stroke="#151515" stroke-linecap="round" stroke-linejoin="round" stroke-width="5.5" d="M13.333 36.667L20 20l6.667 16.667"/>
</svg>
