<svg xmlns="http://www.w3.org/2000/svg" width="40" height="40" fill="none" viewBox="0 0 40 40">
  <path stroke="#151515" stroke-linecap="round" stroke-linejoin="round" stroke-width="5.5" d="M3.333 23.333V10.35A3.333 3.333 0 017 7.017l12.667 1.316h.666L33 7.067a3.333 3.333 0 013.667 3.333v12.933"/>
  <path stroke="#151515" stroke-linecap="round" stroke-linejoin="round" stroke-width="5.5" d="M16.666 13.017v8.533c0 .167.134.283.267.2l6.667-4.267a.282.282 0 000-.416l-6.667-4.25c-.133-.084-.267.033-.267.2z" clip-rule="evenodd"/>
  <path stroke="#151515" stroke-linecap="round" stroke-linejoin="round" stroke-width="5.5" d="M6.533 28.334H6.8a3.2 3.2 0 013.2 3.2v1.8H3.333v-1.8a3.2 3.2 0 013.2-3.2v0zM19.866 28.334h.267a3.2 3.2 0 013.2 3.2v1.8h-6.666v-1.8a3.2 3.2 0 013.2-3.2v0zM33.2 28.334h.267a3.2 3.2 0 013.2 3.2v1.8H30v-1.8a3.2 3.2 0 013.2-3.2v0z"/>
</svg>
