<svg xmlns="http://www.w3.org/2000/svg" width="40" height="40" fill="none" viewBox="0 0 40 40">
  <path stroke="#151515" stroke-linecap="round" stroke-linejoin="round" stroke-width="5.5" d="M25 13.334h-5a3.333 3.333 0 00-3.333 3.333v5A3.333 3.333 0 0020 25h5a3.333 3.333 0 003.333-3.333v-5A3.333 3.333 0 0025 13.333zM28.334 16.667H33a.333.333 0 01.334.333v4.334a.333.333 0 01-.334.333h-4.666M16.667 15H10a3.333 3.333 0 00-3.333 3.333v6.334A.333.333 0 007 25h4.333a.333.333 0 00.334-.333V22a.333.333 0 01.333-.333h4.667M10 28.334v3.333M23.334 8.334v5M18.334 8.334h10"/>
</svg>
