<svg xmlns="http://www.w3.org/2000/svg" width="40" height="40" fill="none" viewBox="0 0 40 40">
  <path stroke="#151515" stroke-linecap="round" stroke-linejoin="round" stroke-width="5.5" d="M6.667 3.333H20a3.333 3.333 0 013.333 3.334v30H6.667a3.333 3.333 0 01-3.334-3.334V6.668a3.333 3.333 0 013.334-3.333v0z"/>
  <path stroke="#151515" stroke-linecap="round" stroke-linejoin="round" stroke-width="5.5" d="M23.333 16.667h10A3.333 3.333 0 0136.667 20v13.334a3.333 3.333 0 01-3.334 3.333h-10M8.333 10H10M15 10h3.333M8.333 16.667H10M15 16.667h3.333M8.333 23.334H10M15 23.334h3.333M8.333 30H10M15 30h3.333M28.333 23.334h3.334M28.333 30h3.334"/>
</svg>
