<svg xmlns="http://www.w3.org/2000/svg" width="40" height="40" fill="none" viewBox="0 0 40 40">
  <path stroke="#151515" stroke-linecap="round" stroke-linejoin="round" stroke-width="5.5" d="M6.433 8.5l-3 3a.334.334 0 00-.1.167v19.6a.333.333 0 00.334.333h6a.333.333 0 00.333-.333v-19.6a.333.333 0 00-.1-.234L6.9 8.5a.317.317 0 00-.467 0v0zM19.767 8.5l-3 3a.333.333 0 00-.1.167v19.6A.333.333 0 0017 31.6h6a.333.333 0 00.333-.333v-19.6a.333.333 0 00-.1-.234l-3-3a.317.317 0 00-.466.067v0zM33.1 8.5l-3 3a.333.333 0 00-.1.167v19.6a.333.333 0 00.333.333h6a.333.333 0 00.334-.333v-19.6a.333.333 0 00-.1-.234l-3-3a.317.317 0 00-.467.067v0z" clip-rule="evenodd"/>
  <path stroke="#151515" stroke-linecap="round" stroke-linejoin="round" stroke-width="5.5" d="M10 16.6h6.667M10 23.267h6.667M23.333 16.6H30M23.333 23.267H30"/>
</svg>
