<svg xmlns="http://www.w3.org/2000/svg" width="40" height="40" fill="none" viewBox="0 0 40 40">
  <path stroke="#151515" stroke-linecap="round" stroke-linejoin="round" stroke-width="5.5" d="M33.333 3.333H6.667a3.333 3.333 0 00-3.334 3.334V30a3.333 3.333 0 003.334 3.334h26.666A3.333 3.333 0 0036.667 30V6.667a3.333 3.333 0 00-3.334-3.333zM11.666 33.334v3.333M28.333 33.334v3.333"/>
  <path stroke="#151515" stroke-linecap="round" stroke-linejoin="round" stroke-width="5.5" d="M20 26.667A8.333 8.333 0 1020 10a8.333 8.333 0 000 16.667zM22.567 21.1L30 28.55M10 8.55l7.433 7.417M17.75 20.8l-8.167 8.167M30.417 8.133L22.7 15.85"/>
  <path stroke="#151515" stroke-linecap="round" stroke-linejoin="round" stroke-width="5.5" d="M20 21.667A3.333 3.333 0 1020 15a3.333 3.333 0 000 6.667z"/>
</svg>
