<svg xmlns="http://www.w3.org/2000/svg" width="40" height="40" fill="none" viewBox="0 0 40 40">
  <path stroke="#151515" stroke-linecap="round" stroke-linejoin="round" stroke-width="5.5" d="M31.667 5H8.333A3.333 3.333 0 005 8.333V10a3.333 3.333 0 003.333 3.333h23.334A3.333 3.333 0 0035 10V8.333A3.333 3.333 0 0031.667 5zM13.333 13.334v5M26.667 13.334v5M31.667 18.334H8.333A3.333 3.333 0 005 21.666v10A3.333 3.333 0 008.333 35h23.334A3.333 3.333 0 0035 31.667v-10a3.333 3.333 0 00-3.333-3.334z"/>
  <path stroke="#151515" stroke-linecap="round" stroke-linejoin="round" stroke-width="5.5" d="M10 31.033a.833.833 0 100-1.666.833.833 0 000 1.666zM23.333 31.033a.833.833 0 100-1.666.833.833 0 000 1.666zM16.667 31.033a.833.833 0 100-1.666.833.833 0 000 1.666zM30 31.033a.833.833 0 100-1.666.833.833 0 000 1.666zM10 24.367a.833.833 0 100-1.667.833.833 0 000 1.667zM23.333 24.367a.833.833 0 100-1.667.833.833 0 000 1.667zM16.667 24.367a.833.833 0 100-1.667.833.833 0 000 1.667zM30 24.367a.833.833 0 100-1.667.833.833 0 000 1.667z"/>
</svg>
