<svg xmlns="http://www.w3.org/2000/svg" width="40" height="40" fill="none" viewBox="0 0 40 40">
  <path stroke="#151515" stroke-linecap="round" stroke-linejoin="round" stroke-width="5.5" d="M3.334 5.35v10a.3.3 0 00.216.3l4.567 1.667a.35.35 0 01.217.317v15.7a3.333 3.333 0 003.333 3.333h16.667a3.334 3.334 0 003.333-3.334V17.6a.366.366 0 01.233-.333l4.55-1.667a.3.3 0 00.217-.233v-10a.333.333 0 00-.283-.333l-9.467-1.7a.35.35 0 00-.367.2l-1.783 3.783A5.284 5.284 0 0120 10.334v0a5.283 5.283 0 01-4.766-3.017L13.45 3.55a.35.35 0 00-.366-.216L3.617 5a.333.333 0 00-.283.35v0z" clip-rule="evenodd"/>
</svg>
