<svg xmlns="http://www.w3.org/2000/svg" width="40" height="40" fill="none" viewBox="0 0 40 40">
  <path stroke="#151515" stroke-linecap="round" stroke-linejoin="round" stroke-width="5.5" d="M31.667 3.333H8.333A3.333 3.333 0 005 6.668v26.666a3.333 3.333 0 003.333 3.334h23.334A3.333 3.333 0 0035 33.333V6.668a3.333 3.333 0 00-3.333-3.333z"/>
  <path stroke="#151515" stroke-linecap="round" stroke-linejoin="round" stroke-width="5.5" d="M13.333 36.667v-10A6.667 6.667 0 0120 20v0a6.667 6.667 0 016.667 6.667v10M5 8.334a5 5 0 0010 0v-5M15 8.334a5 5 0 0010 0v-5M35 8.334a5 5 0 01-10 0v-5"/>
</svg>
