<svg xmlns="http://www.w3.org/2000/svg" width="40" height="40" fill="none" viewBox="0 0 40 40">
  <path stroke="#151515" stroke-linecap="round" stroke-linejoin="round" stroke-width="5.5" d="M26.717 3.333H10.05a3.333 3.333 0 00-3.333 3.334v10A3.333 3.333 0 0010.05 20h16.667a3.333 3.333 0 003.333-3.333v-10a3.333 3.333 0 00-3.333-3.333z"/>
  <path stroke="#151515" stroke-linecap="round" stroke-linejoin="round" stroke-width="5.5" d="M30 8.334h6.233a.333.333 0 01.317.433l-2.033 7.2a.334.334 0 01-.317.233H30M18.133 20v10a3.333 3.333 0 01-3.333 3.333H3.333M3.384 30v6.667"/>
</svg>
