<svg xmlns="http://www.w3.org/2000/svg" width="40" height="40" fill="none" viewBox="0 0 40 40">
  <path stroke="#151515" stroke-linecap="round" stroke-linejoin="round" stroke-width="5.5" d="M20 30c7.364 0 13.333-5.97 13.333-13.333 0-7.364-5.97-13.334-13.333-13.334-7.364 0-13.333 5.97-13.333 13.334S12.637 30 20 30z"/>
  <path stroke="#151515" stroke-linecap="round" stroke-linejoin="round" stroke-width="5.5" d="M20 20a3.333 3.333 0 100-6.667A3.333 3.333 0 0020 20zM16.667 16.667h-10M23.334 16.667h10M10.5 26.017L8.334 32.2a3.334 3.334 0 003.066 4.467h17.317a3.334 3.334 0 003.15-4.383L30 26.667"/>
</svg>
