<svg xmlns="http://www.w3.org/2000/svg" width="40" height="40" fill="none" viewBox="0 0 40 40">
  <path stroke="#151515" stroke-linecap="round" stroke-linejoin="round" stroke-width="5.5" d="M31.316 7.45a12.25 12.25 0 01-3.333-.267 12.433 12.433 0 01-3.65-1.983 24.857 24.857 0 01-2.667-2.184 1.916 1.916 0 00-2.616 0 30.147 30.147 0 01-2.567 2.15A12.95 12.95 0 0112.816 7.2a13.333 13.333 0 01-3.8.3A28.7 28.7 0 015.9 7.2a1.9 1.9 0 00-2.167 1.666c-.083.8-.3 2.884-.4 5.2-.14 2.315.005 4.638.433 6.917a21.666 21.666 0 006.417 9.75 53.48 53.48 0 007.7 6.034 4.417 4.417 0 005 0 53.133 53.133 0 007.267-6.117c2.815-2.621 4.9-5.93 6.05-9.6"/>
  <path stroke="#151515" stroke-linecap="round" stroke-linejoin="round" stroke-width="5.5" d="M18.333 18.333L23.1 23.1a.318.318 0 00.467 0l13.1-13.1"/>
</svg>
