<svg xmlns="http://www.w3.org/2000/svg" width="40" height="40" fill="none" viewBox="0 0 40 40">
  <path stroke="#151515" stroke-linecap="round" stroke-linejoin="round" stroke-width="5.5" d="M20 15a5 5 0 100-10 5 5 0 000 10zM13.333 26.666H6.667A3.333 3.333 0 003.333 30v1.666A3.333 3.333 0 006.667 35h6.666a3.333 3.333 0 003.334-3.334V30a3.333 3.333 0 00-3.334-3.334zM33.333 26.666h-6.666A3.333 3.333 0 0023.333 30v1.666A3.333 3.333 0 0026.667 35h6.666a3.333 3.333 0 003.334-3.334V30a3.333 3.333 0 00-3.334-3.334z"/>
  <path stroke="#151515" stroke-linecap="round" stroke-linejoin="round" stroke-width="5.5" d="M10 26.667v-3.334A3.333 3.333 0 0113.333 20h13.334A3.333 3.333 0 0130 23.333v3.334M20 15v5"/>
</svg>
