<svg xmlns="http://www.w3.org/2000/svg" width="40" height="40" fill="none" viewBox="0 0 40 40">
  <path stroke="#151515" stroke-linecap="round" stroke-linejoin="round" stroke-width="5.5" d="M11.667 30a3.333 3.333 0 100-6.667 3.333 3.333 0 000 6.667zM26.666 15a5 5 0 100-10 5 5 0 000 10zM30 36.667a6.667 6.667 0 100-13.333 6.667 6.667 0 000 13.333zM6.667 10a3.333 3.333 0 100-6.667 3.333 3.333 0 000 6.667zM23.333 30L15 28.334M28.333 15l2.134 8.367M10 6.667l11.667 1.667M11.233 23.333C11.667 23.333 7.267 10 7.267 10"/>
</svg>
