<svg xmlns="http://www.w3.org/2000/svg" width="40" height="40" fill="none" viewBox="0 0 40 40">
  <path stroke="#151515" stroke-linecap="round" stroke-linejoin="round" stroke-width="5.5" d="M36.666 14.066c0-2.333-.266-4.4-.35-5.183a1.916 1.916 0 00-2.166-1.667c-.5 0-1.584.2-2.8.25a12.25 12.25 0 01-3.334-.266 12.435 12.435 0 01-3.65-1.984 24.862 24.862 0 01-2.7-2.2 1.916 1.916 0 00-2.616 0 30.147 30.147 0 01-2.567 2.15A12.95 12.95 0 0112.816 7.2a13.333 13.333 0 01-3.8.3A28.7 28.7 0 015.9 7.2a1.9 1.9 0 00-2.167 1.666c-.083.8-.3 2.884-.4 5.2-.14 2.315.005 4.638.433 6.917a21.666 21.666 0 006.417 9.75 53.48 53.48 0 007.7 6.034 4.417 4.417 0 005 0 53.133 53.133 0 007.267-6.117c2.815-2.621 4.9-5.93 6.05-9.6.438-2.3.594-4.645.466-6.984v0z" clip-rule="evenodd"/>
  <path stroke="#151515" stroke-linecap="round" stroke-linejoin="round" stroke-width="5.5" d="M28.333 31.666V30A8.333 8.333 0 0020 21.666v0A8.333 8.333 0 0011.666 30v1.283M20 20a4.167 4.167 0 100-8.333A4.167 4.167 0 0020 20z"/>
</svg>
