<svg xmlns="http://www.w3.org/2000/svg" width="40" height="40" fill="none" viewBox="0 0 40 40">
  <path stroke="#151515" stroke-linecap="round" stroke-linejoin="round" stroke-width="5.5" d="M10 10H6.667a3.333 3.333 0 00-3.334 3.333v13.334A3.333 3.333 0 006.667 30H10a3.333 3.333 0 003.333-3.333V13.333A3.333 3.333 0 0010 10zM33.333 10H30a3.333 3.333 0 00-3.334 3.333v13.334A3.333 3.333 0 0030 30h3.333a3.333 3.333 0 003.334-3.333V13.333A3.333 3.333 0 0033.332 10zM13.333 16.666h13.334M26.667 23.334H13.333"/>
</svg>
