<svg xmlns="http://www.w3.org/2000/svg" width="40" height="40" fill="none" viewBox="0 0 40 40">
  <path stroke="#151515" stroke-linecap="round" stroke-linejoin="round" stroke-width="5.5" d="M32.5 20l-5 8.333h5l-4.167 8.334"/>
  <path stroke="#151515" stroke-linecap="round" stroke-linejoin="round" stroke-width="5.5" d="M36.133 22.133a8.436 8.436 0 00.534-2.966 9.366 9.366 0 00-7.617-8.9A10.116 10.116 0 0020 5a10.117 10.117 0 00-9.05 5.267 9.367 9.367 0 00-7.617 8.9 9.617 9.617 0 0010 9.166 10.8 10.8 0 003.767-.683 6.5 6.5 0 005.8 0M20 33.334l-1.667 3.333M13.333 33.334l-1.667 3.333M6.667 33.334L5 36.666"/>
</svg>
