<svg xmlns="http://www.w3.org/2000/svg" width="40" height="40" fill="none" viewBox="0 0 40 40">
  <path stroke="#151515" stroke-linecap="round" stroke-linejoin="round" stroke-width="5.5" d="M30.95 30a5.5 5.5 0 005.717-5.233 5.334 5.334 0 00-4.35-5 5.934 5.934 0 00-10.333 0 5.35 5.35 0 00-4.367 5A5.5 5.5 0 0023.334 30a6.084 6.084 0 002.15-.4 3.634 3.634 0 003.333 0 6.085 6.085 0 002.15.4"/>
  <path stroke="#151515" stroke-linecap="round" stroke-linejoin="round" stroke-width="5.5" d="M16.3 6.067A4.9 4.9 0 0011.9 3.5a4.883 4.883 0 00-4.383 2.567 4.517 4.517 0 00-3.7 4.316 4.667 4.667 0 004.85 4.45A5.117 5.117 0 0010.5 14.5c.437.212.915.325 1.4.333a3.333 3.333 0 001.433-.333 5.118 5.118 0 001.834.333A4.667 4.667 0 0020 10.383a4.533 4.533 0 00-3.7-4.316v0z" clip-rule="evenodd"/>
  <path stroke="#151515" stroke-linecap="round" stroke-linejoin="round" stroke-width="5.5" d="M30.5 30.716A15 15 0 016.05 14.45M16.367 5.45A14.567 14.567 0 0120 5a15 15 0 0115 15v.833"/>
</svg>
